<svg width="141" height="25" viewBox="0 0 141 25" fill="none" xmlns="http://www.w3.org/2000/svg">
<path d="M0.368 20L0.704 0.559999H5.312L7.448 11.864L9.752 0.559999H14.192L14.528 20H11.48L11.12 7.064L8.864 20H6.152L3.752 6.968L3.464 20H0.368ZM17.5064 24.032V21.32C18.0024 21.32 18.4104 21.288 18.7304 21.224C19.0664 21.16 19.3144 21.04 19.4744 20.864C19.6504 20.688 19.7384 20.448 19.7384 20.144C19.7384 19.872 19.6904 19.544 19.5944 19.16C19.4984 18.76 19.3784 18.312 19.2344 17.816L15.9704 6.128H19.6424L21.3944 14.144L22.7144 6.128H26.4104L23.2184 20.336C23.0104 21.296 22.6824 22.04 22.2344 22.568C21.7864 23.112 21.2344 23.488 20.5784 23.696C19.9384 23.92 19.2104 24.032 18.3944 24.032H17.5064ZM34.2369 20V0.559999H40.7649C41.9329 0.559999 42.8929 0.783998 43.6449 1.232C44.3969 1.664 44.9569 2.304 45.3249 3.152C45.6929 3.984 45.8769 5 45.8769 6.2C45.8769 7.704 45.6289 8.856 45.1329 9.656C44.6369 10.44 43.9649 10.984 43.1169 11.288C42.2689 11.592 41.3169 11.744 40.2609 11.744H38.5329V20H34.2369ZM38.5329 8.744H39.9729C40.5009 8.744 40.9009 8.648 41.1729 8.456C41.4449 8.264 41.6209 7.976 41.7009 7.592C41.7969 7.208 41.8449 6.72 41.8449 6.128C41.8449 5.632 41.8049 5.2 41.7249 4.832C41.6609 4.448 41.4929 4.144 41.2209 3.92C40.9489 3.696 40.5249 3.584 39.9489 3.584H38.5329V8.744ZM53.5158 20.288C52.0598 20.288 50.9078 20.032 50.0598 19.52C49.2118 19.008 48.6038 18.272 48.2358 17.312C47.8678 16.352 47.6838 15.208 47.6838 13.88V6.656C47.6838 5.312 47.8678 4.168 48.2358 3.224C48.6038 2.28 49.2118 1.56 50.0598 1.064C50.9078 0.551999 52.0598 0.295999 53.5158 0.295999C54.9878 0.295999 56.1478 0.551999 56.9958 1.064C57.8598 1.56 58.4758 2.28 58.8438 3.224C59.2118 4.168 59.3958 5.312 59.3958 6.656V13.88C59.3958 15.208 59.2118 16.352 58.8438 17.312C58.4758 18.272 57.8598 19.008 56.9958 19.52C56.1478 20.032 54.9878 20.288 53.5158 20.288ZM53.5158 17.24C53.9638 17.24 54.2918 17.128 54.4998 16.904C54.7078 16.68 54.8438 16.392 54.9078 16.04C54.9718 15.688 55.0038 15.328 55.0038 14.96V5.6C55.0038 5.216 54.9718 4.856 54.9078 4.52C54.8438 4.168 54.7078 3.88 54.4998 3.656C54.2918 3.432 53.9638 3.32 53.5158 3.32C53.0998 3.32 52.7878 3.432 52.5798 3.656C52.3718 3.88 52.2358 4.168 52.1718 4.52C52.1078 4.856 52.0758 5.216 52.0758 5.6V14.96C52.0758 15.328 52.0998 15.688 52.1478 16.04C52.2118 16.392 52.3398 16.68 52.5318 16.904C52.7398 17.128 53.0678 17.24 53.5158 17.24ZM62.0103 20V0.559999H67.3623C68.6743 0.559999 69.8103 0.703999 70.7703 0.991999C71.7303 1.28 72.4743 1.8 73.0023 2.552C73.5463 3.288 73.8183 4.336 73.8183 5.696C73.8183 6.496 73.7543 7.208 73.6263 7.832C73.4983 8.456 73.2583 9 72.9063 9.464C72.5703 9.912 72.0823 10.288 71.4423 10.592L74.1063 20H69.6663L67.5303 11.288H66.3063V20H62.0103ZM66.3063 8.816H67.5063C68.1143 8.816 68.5863 8.712 68.9223 8.504C69.2583 8.28 69.4903 7.968 69.6183 7.568C69.7623 7.152 69.8343 6.656 69.8343 6.08C69.8343 5.248 69.6823 4.6 69.3783 4.136C69.0743 3.672 68.5143 3.44 67.6983 3.44H66.3063V8.816ZM77.8951 20V3.752H74.9671V0.559999H85.1191V3.752H82.2151V20H77.8951ZM86.8306 20V0.559999H95.2306V3.464H91.1266V8.36H94.7026V11.36H91.1266V20H86.8306ZM102.805 20.288C101.349 20.288 100.197 20.032 99.3489 19.52C98.5009 19.008 97.8929 18.272 97.5249 17.312C97.1569 16.352 96.9729 15.208 96.9729 13.88V6.656C96.9729 5.312 97.1569 4.168 97.5249 3.224C97.8929 2.28 98.5009 1.56 99.3489 1.064C100.197 0.551999 101.349 0.295999 102.805 0.295999C104.277 0.295999 105.437 0.551999 106.285 1.064C107.149 1.56 107.765 2.28 108.133 3.224C108.501 4.168 108.685 5.312 108.685 6.656V13.88C108.685 15.208 108.501 16.352 108.133 17.312C107.765 18.272 107.149 19.008 106.285 19.52C105.437 20.032 104.277 20.288 102.805 20.288ZM102.805 17.24C103.253 17.24 103.581 17.128 103.789 16.904C103.997 16.68 104.133 16.392 104.197 16.04C104.261 15.688 104.293 15.328 104.293 14.96V5.6C104.293 5.216 104.261 4.856 104.197 4.52C104.133 4.168 103.997 3.88 103.789 3.656C103.581 3.432 103.253 3.32 102.805 3.32C102.389 3.32 102.077 3.432 101.869 3.656C101.661 3.88 101.525 4.168 101.461 4.52C101.397 4.856 101.365 5.216 101.365 5.6V14.96C101.365 15.328 101.389 15.688 101.437 16.04C101.501 16.392 101.629 16.68 101.821 16.904C102.029 17.128 102.357 17.24 102.805 17.24ZM111.299 20V0.559999H115.595V17.096H120.059V20H111.299ZM121.964 20V0.559999H126.26V20H121.964ZM134.727 20.288C133.271 20.288 132.119 20.032 131.271 19.52C130.423 19.008 129.815 18.272 129.447 17.312C129.079 16.352 128.895 15.208 128.895 13.88V6.656C128.895 5.312 129.079 4.168 129.447 3.224C129.815 2.28 130.423 1.56 131.271 1.064C132.119 0.551999 133.271 0.295999 134.727 0.295999C136.199 0.295999 137.359 0.551999 138.207 1.064C139.071 1.56 139.687 2.28 140.055 3.224C140.423 4.168 140.607 5.312 140.607 6.656V13.88C140.607 15.208 140.423 16.352 140.055 17.312C139.687 18.272 139.071 19.008 138.207 19.52C137.359 20.032 136.199 20.288 134.727 20.288ZM134.727 17.24C135.175 17.24 135.503 17.128 135.711 16.904C135.919 16.68 136.055 16.392 136.119 16.04C136.183 15.688 136.215 15.328 136.215 14.96V5.6C136.215 5.216 136.183 4.856 136.119 4.52C136.055 4.168 135.919 3.88 135.711 3.656C135.503 3.432 135.175 3.32 134.727 3.32C134.311 3.32 133.999 3.432 133.791 3.656C133.583 3.88 133.447 4.168 133.383 4.52C133.319 4.856 133.287 5.216 133.287 5.6V14.96C133.287 15.328 133.311 15.688 133.359 16.04C133.423 16.392 133.551 16.68 133.743 16.904C133.951 17.128 134.279 17.24 134.727 17.24Z" fill="#EEEEEE"/>
</svg>
